<svg width="44" height="35" viewBox="0 0 44 35" fill="none" xmlns="http://www.w3.org/2000/svg">
<path d="M25.5078 13.2344C25.5078 11.5078 24.2891 10.5547 22.1484 10.5547H18.2109V16.1172H21.5312C24.0937 16.1094 25.5078 15.0781 25.5078 13.2344ZM39.8437 12.2344C39.1016 9.82031 38.9922 6.85938 39.0781 4.57031C39.1641 2.1875 37.3047 0 34.8047 0H9.11719C6.60937 0 4.75781 2.19531 4.84375 4.57031C4.92188 6.85938 4.82031 9.82031 4.07812 12.2344C3.32812 14.6562 2.07031 16.1875 0 16.3828V18.6094C2.0625 18.8047 3.32812 20.3359 4.07812 22.7578C4.82031 25.1719 4.92969 28.1328 4.84375 30.4219C4.75781 32.8047 6.61719 34.9922 9.11719 34.9922H34.7969C37.3047 34.9922 39.1562 32.7969 39.0703 30.4219C38.9922 28.1328 39.0938 25.1719 39.8359 22.7578C40.5859 20.3359 41.8437 18.8047 43.9062 18.6094V16.3828C41.8516 16.1875 40.5859 14.6562 39.8437 12.2344ZM22.9062 26.8047H15.2578V8.1875H22.8672C26.25 8.1875 28.4687 10.0156 28.4687 12.8281C28.4687 14.8047 26.9766 16.5703 25.0703 16.875V16.9766C27.6641 17.2578 29.4062 19.0547 29.4062 21.5312C29.4062 24.8203 26.9609 26.8047 22.9062 26.8047ZM22.125 18.3125H18.2109V24.4375H22.2969C24.9687 24.4375 26.3828 23.3672 26.3828 21.3516C26.3828 19.3438 24.9297 18.3125 22.125 18.3125Z" fill="#9E0303"/>
</svg>
