<svg width="36" height="19" viewBox="0 0 36 19" fill="none" xmlns="http://www.w3.org/2000/svg">
<path d="M0.209406 9.504C0.209406 7.84 0.553406 6.36 1.24141 5.064C1.94541 3.752 2.93741 2.736 4.21741 2.016C5.49741 1.28 6.96941 0.912 8.63341 0.912C10.7454 0.912 12.5214 1.48 13.9614 2.616C15.4014 3.736 16.3294 5.264 16.7454 7.2H11.6814C11.3774 6.56 10.9534 6.072 10.4094 5.736C9.88141 5.4 9.26541 5.232 8.56141 5.232C7.47341 5.232 6.60141 5.624 5.94541 6.408C5.30541 7.176 4.98541 8.208 4.98541 9.504C4.98541 10.816 5.30541 11.864 5.94541 12.648C6.60141 13.416 7.47341 13.8 8.56141 13.8C9.26541 13.8 9.88141 13.632 10.4094 13.296C10.9534 12.96 11.3774 12.472 11.6814 11.832H16.7454C16.3294 13.768 15.4014 15.304 13.9614 16.44C12.5214 17.56 10.7454 18.12 8.63341 18.12C6.96941 18.12 5.49741 17.76 4.21741 17.04C2.93741 16.304 1.94541 15.288 1.24141 13.992C0.553406 12.68 0.209406 11.184 0.209406 9.504ZM35.4369 1.08L29.6049 18H23.5809L17.7249 1.08H22.7649L26.6049 13.296L30.4209 1.08H35.4369Z" fill="#9E0303"/>
</svg>
