<svg width="38" height="35" viewBox="0 0 38 35" fill="none" xmlns="http://www.w3.org/2000/svg">
<path d="M33.9286 0H4.07143C1.82366 0 0 1.67969 0 3.75V31.25C0 33.3203 1.82366 35 4.07143 35H33.9286C36.1763 35 38 33.3203 38 31.25V3.75C38 1.67969 36.1763 0 33.9286 0ZM20.6795 27.2969C20.6795 30.7031 18.508 32.2578 15.3442 32.2578C12.4857 32.2578 10.8317 30.8984 9.98348 29.25L12.8929 27.6328C13.4527 28.5469 13.9616 29.3203 15.1915 29.3203C16.3621 29.3203 17.1085 28.8984 17.1085 27.25V16.0703H20.6795V27.2969ZM29.1277 32.2578C25.8112 32.2578 23.6652 30.8047 22.6219 28.8984L25.5312 27.3516C26.2946 28.5 27.2955 29.3516 29.0513 29.3516C30.5272 29.3516 31.4772 28.6719 31.4772 27.7266C31.4772 26.6016 30.5103 26.2031 28.8732 25.5391L27.9826 25.1875C25.404 24.1797 23.6991 22.9062 23.6991 20.2266C23.6991 17.7578 25.7433 15.8828 28.9241 15.8828C31.1973 15.8828 32.8259 16.6094 33.9964 18.5156L31.2143 20.1562C30.6036 19.1484 29.942 18.75 28.9156 18.75C27.8723 18.75 27.2107 19.3594 27.2107 20.1562C27.2107 21.1406 27.8723 21.5391 29.4076 22.1562L30.2982 22.5078C33.3348 23.7031 35.0397 24.9297 35.0397 27.6797C35.0397 30.6328 32.5121 32.2578 29.1277 32.2578Z" fill="#9E0303"/>
</svg>
