<svg width="30" height="27" viewBox="0 0 30 27" fill="none" xmlns="http://www.w3.org/2000/svg">
<path d="M6.71518 26.2494H0.495536V8.72402H6.71518V26.2494ZM3.60201 6.3334C1.61317 6.3334 0 4.89199 0 3.15176C1.42353e-08 2.31586 0.379496 1.5142 1.055 0.923129C1.73051 0.332059 2.6467 0 3.60201 0C4.55732 0 5.47351 0.332059 6.14901 0.923129C6.82452 1.5142 7.20402 2.31586 7.20402 3.15176C7.20402 4.89199 5.59018 6.3334 3.60201 6.3334ZM29.9933 26.2494H23.7871V17.7182C23.7871 15.685 23.7402 13.0775 20.5533 13.0775C17.3196 13.0775 16.8241 15.2865 16.8241 17.5717V26.2494H10.6112V8.72402H16.5763V11.1146H16.6634C17.4937 9.7377 19.5221 8.28457 22.5482 8.28457C28.8429 8.28457 30 11.9115 30 16.6225V26.2494H29.9933Z" fill="#9E0303"/>
</svg>
