<svg width="40" height="38" viewBox="0 0 40 38" fill="none" xmlns="http://www.w3.org/2000/svg">
<path d="M18.8648 28.3528C18.8273 28.4372 18.846 28.3997 18.8648 28.3528V28.3528ZM34.4354 21.5559C33.1784 21.5554 31.9381 21.9163 30.8104 22.6106C30.4416 21.6809 30.0604 20.8684 29.9979 20.259C29.9229 19.5481 29.8416 19.1262 29.9291 18.2825C30.0166 17.4387 30.4104 16.2434 30.4041 16.1575C30.3979 16.0715 30.3166 15.6419 29.5104 15.634C28.7041 15.6262 28.0104 15.8294 27.9298 16.095C27.7874 16.5804 27.6766 17.0794 27.5985 17.5872C27.4548 18.5012 25.9866 21.7669 25.1554 23.47C24.8804 22.8059 24.6491 22.22 24.5991 21.7512C24.5241 21.0403 24.4429 20.6184 24.5304 19.7747C24.6179 18.9309 25.0116 17.7356 25.0054 17.6497C24.9991 17.5637 24.9179 17.134 24.1123 17.1262C23.3066 17.1184 22.6123 17.3215 22.531 17.5872C22.4498 17.8528 22.3623 18.4778 22.1998 19.0794C22.0373 19.6809 20.0816 25.1184 19.5698 26.5325C19.3073 27.2512 19.0823 27.8294 18.9198 28.22C18.8948 28.2825 18.876 28.3215 18.8635 28.3528C18.8823 28.3137 18.8948 28.2747 18.8948 28.2903C18.7573 28.6262 18.676 28.8137 18.676 28.8137V28.8215C18.5698 29.0715 18.451 29.2981 18.3948 29.2981C18.3573 29.2981 18.276 28.6419 18.4135 27.7434C18.7073 25.8528 19.401 22.9153 19.3948 22.8137C19.3885 22.759 19.526 22.2512 18.9385 21.9778C18.3698 21.72 18.1635 22.1497 18.1135 22.1497C18.0635 22.1497 18.026 22.3059 18.026 22.3059C18.026 22.3059 18.6573 18.9934 16.8141 18.9934C15.6642 18.9934 14.0641 20.5715 13.2779 22.0012C12.7842 22.3372 11.7154 23.0637 10.5904 23.8372C10.1592 24.134 9.7154 24.4387 9.29665 24.7278C9.2654 24.6887 9.2404 24.6497 9.20915 24.6106C6.97228 21.6262 2.84228 19.5169 3.01728 15.509C3.07978 14.0481 3.48603 10.2122 10.9592 5.55592C17.0842 1.74342 21.981 2.79029 22.8242 5.11842C24.0366 8.43873 20.206 14.6184 13.8454 15.509C11.421 15.845 10.1467 14.6731 9.8279 14.2356C9.49665 13.7747 9.44665 13.7512 9.32165 13.8372C9.1154 13.9778 9.24665 14.384 9.32165 14.6262C9.50915 15.2434 10.2904 16.3372 11.621 16.884C12.7898 17.3606 15.6323 17.6262 19.0691 15.9622C22.9304 14.1028 25.936 8.92311 25.0548 4.58717C24.1573 0.180919 18.3123 -1.26439 12.7854 1.18873C9.49228 2.64967 5.93103 4.94654 3.36915 7.93873C0.326027 11.5012 -0.160848 14.6028 0.0391523 15.8997C0.751027 20.5012 5.82478 23.5012 7.8554 25.72C7.7554 25.7903 7.66165 25.8528 7.57415 25.9153C6.55603 26.5481 2.6879 29.0794 1.71978 31.7512C0.626027 34.7825 1.90103 36.9544 2.7379 37.2512C5.34978 38.1575 8.02415 36.5247 9.46103 33.845C10.8979 31.1653 10.7235 27.6653 10.061 26.0715C10.0548 26.0481 10.0423 26.0325 10.036 26.009C10.2985 25.8137 10.5673 25.6184 10.836 25.4231C11.3542 25.0403 11.8604 24.6887 12.3041 24.384C12.0541 25.2278 11.8729 26.2434 11.7792 27.7122C11.6667 29.4309 12.2354 31.6575 12.9729 32.5325C13.2979 32.9153 13.691 32.9231 13.9348 32.9231C14.7973 32.9231 15.1848 32.0325 15.6154 30.97C16.1467 29.6731 16.6154 28.1653 16.6154 28.1653C16.6154 28.1653 16.0279 32.2434 17.6341 32.2434C18.221 32.2434 18.8085 31.2981 19.0716 30.8137V30.8215C19.0716 30.8215 19.0842 30.7903 19.1154 30.7278C19.1779 30.6106 19.2092 30.5403 19.2092 30.5403V30.5169C19.4466 30.009 19.9654 28.845 20.746 26.9231C21.7585 24.4387 22.7267 21.3372 22.7267 21.3372C22.8202 22.019 22.9496 22.6923 23.1141 23.3528C23.2891 24.095 23.6579 24.9075 23.9517 25.6965C23.7141 26.1028 23.5704 26.3372 23.5704 26.3372C23.5709 26.3432 23.5731 26.3487 23.5767 26.3528C23.3892 26.6653 23.1766 27.0012 22.9579 27.3294C22.1585 28.5169 21.2079 29.8762 21.0829 30.2669C20.9329 30.7278 20.9704 31.0715 21.2579 31.3372C21.4704 31.5403 21.8454 31.5715 22.2385 31.5325C22.9573 31.47 23.4635 31.2512 23.7073 31.1106C24.1566 30.9092 24.5813 30.6305 24.9691 30.2825C25.7504 29.5637 26.2254 28.5325 26.1816 27.1731C26.1566 26.4231 25.9629 25.6731 25.7254 24.97C25.7941 24.845 25.8692 24.7122 25.9379 24.5794C27.1748 22.3215 28.131 19.8434 28.131 19.8434C28.2246 20.5252 28.354 21.1986 28.5185 21.859C28.6685 22.4919 28.9616 23.1872 29.2304 23.8669C28.0685 25.0465 27.3498 26.4137 27.0998 27.3122C26.6373 28.9762 26.9998 29.7262 27.681 29.8981C27.9873 29.9762 28.4248 29.7965 28.7498 29.6247C29.2324 29.4237 29.6875 29.1312 30.0991 28.7575C30.8804 28.0387 31.636 27.0309 31.586 25.6637C31.5673 25.0465 31.4298 24.4294 31.2485 23.8356C32.2298 23.32 33.5042 23.0387 35.1292 23.2731C38.6091 23.7809 39.2904 26.4997 39.1591 27.6325C39.0279 28.7653 38.2966 29.3981 38.0529 29.5856C37.8091 29.7731 37.7341 29.8434 37.7529 29.984C37.7841 30.1872 37.8967 30.1794 38.1029 30.1325C38.3904 30.07 39.9273 29.2106 39.996 27.109C40.096 24.4528 38.0529 21.5309 34.4335 21.5544L34.4354 21.5559ZM7.61165 32.8606C6.46228 34.4309 4.84978 35.0247 4.15665 34.5247C3.4129 33.984 3.70665 31.6731 5.12478 29.9997C5.98728 28.984 7.09915 28.0465 7.83665 27.4684C8.0054 27.3434 8.24915 27.1559 8.54915 26.9294C8.59915 26.8903 8.62415 26.8747 8.62415 26.8747C8.6804 26.8278 8.7429 26.7887 8.8054 26.7419C9.32353 29.1169 8.82415 31.2106 7.61165 32.859V32.8606ZM16.0091 25.72C15.6091 26.9465 14.766 30.0715 14.2535 29.9075C13.816 29.7669 13.5473 27.384 14.166 25.0403C14.4785 23.8606 15.141 22.4544 15.5348 21.9075C16.1654 21.0247 16.8591 20.7434 17.0217 21.095C17.2404 21.5559 16.2591 24.9544 16.0091 25.72ZM22.9466 29.8606C22.7779 29.97 22.6216 30.0403 22.5466 29.9856C22.4904 29.9465 22.6154 29.7981 22.6154 29.7981C22.6154 29.7981 23.4841 28.634 23.8279 28.1028C24.0279 27.7903 24.2591 27.4231 24.5085 27.0169C24.5085 27.0559 24.5148 27.095 24.5148 27.1419C24.5066 28.5403 23.4323 29.4856 22.9448 29.8606H22.9466ZM28.2954 28.3372C28.1704 28.2278 28.1891 27.8606 28.6079 26.72C28.7704 26.2747 29.1448 25.5247 29.7954 24.8059C29.869 25.078 29.9091 25.3625 29.9141 25.6497C29.9079 27.4075 28.9016 28.0637 28.296 28.3372H28.2954Z" fill="#9E0303"/>
</svg>
