<svg width="30" height="27" viewBox="0 0 30 27" fill="none" xmlns="http://www.w3.org/2000/svg">
<path d="M25.5067 3.81445C22.7009 1.35352 18.9643 0 14.9933 0C6.79687 0 0.127232 5.83594 0.127232 13.0078C0.127232 15.2988 0.810268 17.5371 2.10938 19.5117L0 26.25L7.8817 24.4395C10.0513 25.4766 12.4955 26.0215 14.9866 26.0215H14.9933C23.183 26.0215 30 20.1855 30 13.0137C30 9.53906 28.3125 6.27539 25.5067 3.81445ZM14.9933 23.8301C12.7701 23.8301 10.5937 23.3086 8.69866 22.3242L8.25 22.0898L3.57589 23.1621L4.82143 19.1719L4.52679 18.7617C3.28795 17.0391 2.63839 15.0527 2.63839 13.0078C2.63839 7.04883 8.18303 2.19727 15 2.19727C18.3013 2.19727 21.4018 3.32227 23.7321 5.36719C26.0625 7.41211 27.4955 10.125 27.4888 13.0137C27.4888 18.9785 21.8036 23.8301 14.9933 23.8301ZM21.7701 15.7324C21.4018 15.5684 19.5737 14.7832 19.2321 14.6777C18.8906 14.5664 18.6429 14.5137 18.3951 14.8418C18.1473 15.1699 17.4375 15.8965 17.2165 16.1191C17.0022 16.3359 16.7812 16.3652 16.4129 16.2012C14.2299 15.2461 12.7969 14.4961 11.3571 12.334C10.9754 11.7598 11.7388 11.8008 12.4487 10.5586C12.5692 10.3418 12.5089 10.1543 12.4152 9.99023C12.3214 9.82617 11.5781 8.22656 11.2701 7.57617C10.9688 6.94336 10.6607 7.03125 10.433 7.01953C10.2188 7.00781 9.97098 7.00781 9.72321 7.00781C9.47545 7.00781 9.07366 7.08984 8.73214 7.41211C8.39062 7.74023 7.43304 8.52539 7.43304 10.125C7.43304 11.7246 8.76562 13.2715 8.94643 13.4883C9.13393 13.7051 11.5647 16.9863 15.2946 18.3984C17.6518 19.2891 18.5759 19.3652 19.7545 19.2129C20.471 19.1191 21.9509 18.4277 22.2589 17.666C22.567 16.9043 22.567 16.2539 22.4732 16.1191C22.3862 15.9727 22.1384 15.8906 21.7701 15.7324Z" fill="#9E0303"/>
</svg>
